# xmcd
#
# Track frame offsets:
#	150
#	19939
#	41979
#	59058
#	82024
#	100991
#	105962
#	117998
#	130346
#	144073
#	165882
#	177748
#	195616
#	211807
#	229973
#	234356
#	249267
#	267016
#	277410
#	278881
#	291576
#	294272
#	304517
#	307741
#	322793
#
# Disc length: 4452 seconds
#
# Revision: 3
# Processed by: cddbd v1.5.2PL0 Copyright (c) Steve Scherf et al.
# Submitted via: EZCDAudioConverter 1.3.4.1
#
DISCID=6a116219
DTITLE=V/A - Next Stop Is Vietnam 8/13
DYEAR=2010
DGENRE=
TTITLE0=Phil Ochs - The War Is Over
TTITLE1=Plastic Ono Band - Give Peace A Chance 
TTITLE2=Bobby Bloom - Sign Of The ''V''
TTITLE3=George Jay - The Real Silent Majority
TTITLE4=Lightning Hopkins - Please Settle In Vietnam
TTITLE5=Stan Freberg and Lynn Murray - Winding The War Down - McGovern-Hatfield 
TTITLE5=Amendment To End The War
TTITLE6=Bobby Zehm - Johnny's Not A Toy Soldier
TTITLE7=Henson Cargill - Pencil Marks On The Wall
TTITLE8=Coast - Why (A Peace Medley)
TTITLE9=Melanie - Peace Will Come (According To Plan)
TTITLE10=People - Chant For Peace
TTITLE11=Marvin Gaye - What's Going On
TTITLE12=John and Yoko and the Plastic Ono Band with The Harlem Community Choir 
TTITLE12=/ Happy Xmas (War Is Over)
TTITLE13=Arlene Harden - Congratulations (You Sure Made A Man Out Of Him)
TTITLE14=President Nixon: ''I call on Hanoi to release all POWs...'' (''Off
TTITLE14=air'' radio 1971)
TTITLE15=Captain John Canty, U.S.A.F. - MIA - POW (Prisoner Of War Song)
TTITLE16=Norma Jean Carpenter and Bobby Adams - Prisoner Of War
TTITLE17=Nancy - I Promise I'll Wait
TTITLE18=President Nixon: ''Peace with honor in Vietnam'' (''Off-air'' radi
TTITLE18=o 1-23-1973)
TTITLE19=The Nu Page - When The Brothers Come Marching Home
TTITLE20=John Laurence, CBS News: ''A cease fire has come....'' (1-27-73)
TTITLE21=Bob Glover - The Story Of Vietnam
TTITLE22=SP4 Tom Fowlston, AFVN News, reports on POW releases (AFVN 'air ch
TTITLE22=eck' February 1973)
TTITLE23=Billy Holeman - Prisoner Of War (Welcome Back Home)
TTITLE24=Eldon Fault - Welcome Home POW
EXTD=
EXTT0=
EXTT1=
EXTT2=
EXTT3=
EXTT4=
EXTT5=
EXTT6=
EXTT7=
EXTT8=
EXTT9=
EXTT10=
EXTT11=
EXTT12=
EXTT13=
EXTT14=
EXTT15=
EXTT16=
EXTT17=
EXTT18=
EXTT19=
EXTT20=
EXTT21=
EXTT22=
EXTT23=
EXTT24=
PLAYORDER=
